HIERARCHY
ROOT Hips
{
  OFFSET 0 0 0
  CHANNELS 6 Xposition Yposition Zposition Zrotation Xrotation Yrotation
  JOINT Spine
  {
    OFFSET 0 10.0588 -0.358158
    CHANNELS 3 Zrotation Xrotation Yrotation
    JOINT Spine1
    {
      OFFSET 0 11.7428 0
      CHANNELS 3 Zrotation Xrotation Yrotation
      JOINT Spine2
      {
        OFFSET 0 13.4203 0
        CHANNELS 3 Zrotation Xrotation Yrotation
        JOINT Neck
        {
          OFFSET 0 15.0978 0
          CHANNELS 3 Zrotation Xrotation Yrotation
          JOINT Head
          {
            OFFSET 0 8.08556 2.68779
            CHANNELS 3 Zrotation Xrotation Yrotation
            End Site
            {
              OFFSET 0 21.4992 7.1467
            }
          }
        }
        JOINT LeftShoulder
        {
          OFFSET 5.94912 13.2477 -0.0644506
          CHANNELS 3 Zrotation Xrotation Yrotation
          JOINT LeftArm
          {
            OFFSET 0 12.4722 0
            CHANNELS 3 Zrotation Xrotation Yrotation
            JOINT LeftForeArm
            {
              OFFSET 0 23.8149 0
              CHANNELS 3 Zrotation Xrotation Yrotation
              JOINT LeftHand
              {
                OFFSET 0 24.5563 0
                CHANNELS 3 Zrotation Xrotation Yrotation
                End Site
                {
                  OFFSET -1.85578 17.3552 -0.291151
                }
              }
            }
          }
        }
        JOINT RightShoulder
        {
          OFFSET -5.94912 13.2478 -0.0672944
          CHANNELS 3 Zrotation Xrotation Yrotation
          JOINT RightArm
          {
            OFFSET 0 12.4722 1.01534e-05
            CHANNELS 3 Zrotation Xrotation Yrotation
            JOINT RightForeArm
            {
              OFFSET 0 23.8199 0
              CHANNELS 3 Zrotation Xrotation Yrotation
              JOINT RightHand
              {
                OFFSET 0 24.5599 -1.20798e-05
                CHANNELS 3 Zrotation Xrotation Yrotation
                End Site
                {
                  OFFSET 1.86614 17.4983 -0.349753
                }
              }
            }
          }
        }
      }
    }
  }
  JOINT LeftUpLeg
  {
    OFFSET 9.39209 -5.57221 -0.0932091
    CHANNELS 3 Zrotation Xrotation Yrotation
    JOINT LeftLeg
    {
      OFFSET -0.000105689 42.3184 -0.000554031
      CHANNELS 3 Zrotation Xrotation Yrotation
      JOINT LeftFoot
      {
        OFFSET 0 39.0997 0
        CHANNELS 3 Zrotation Xrotation Yrotation
        JOINT LeftToe
        {
          OFFSET 0 14.7062 0
          CHANNELS 3 Zrotation Xrotation Yrotation
          End Site
          {
            OFFSET 0 5.95384 0
          }
        }
      }
    }
  }
  JOINT RightUpLeg
  {
    OFFSET -9.3921 -5.57221 -0.0152272
    CHANNELS 3 Zrotation Xrotation Yrotation
    JOINT RightLeg
    {
      OFFSET -0.00151223 42.326 0.0073622
      CHANNELS 3 Zrotation Xrotation Yrotation
      JOINT RightFoot
      {
        OFFSET 0 39.0934 0
        CHANNELS 3 Zrotation Xrotation Yrotation
        JOINT RightToe
        {
          OFFSET 0 14.5999 0
          CHANNELS 3 Zrotation Xrotation Yrotation
          End Site
          {
            OFFSET 0 6.0364 0
          }
        }
      }
    }
  }
}
MOTION
Frames:	11
Frame Time:	0.0416667
-0.746773 103.853 -0.0490226 2.1419 -5.44023 -15.7345 -1.0542 4.99374 -0.861186 -0.156237 2.12419 -0.545659 -0.150715 2.12832 -0.535252 1.2187 2.0333 2.42194 -4.6586 -4.84603 13.9035 -116.214 0.816702 93.6026 5.25796 48.7431 5.68024 21.7114 0.372353 -0.514719 -2.96386 4.90429 17.5301 119.734 7.84944 -96.6959 -2.80554 53.3013 24.9855 -15.6454 0.259998 0.524567 3.70384 7.22824 -31.2308 -176.2 5.39056 -8.14554 0.18531 -18.3924 -1.17152 118.318 81.8243 -124.719 -1.04305 2.0906 3.37854 178.666 -0.738739 10.8416 0.974935 -23.815 10.0937 -148.176 69.6181 149.638 1.20793 3.50141 -3.55018 
-0.804254 103.789 0.13744 2.19 -5.49037 -16.6859 -1.17518 5.13205 -0.975578 -0.200822 2.074 -0.617093 -0.194101 2.07858 -0.60705 1.23189 2.12626 2.46314 -4.62185 -4.79917 14.2349 -116.031 0.919646 93.6287 5.43792 48.9686 5.72402 20.9712 0.360049 -0.510416 -2.58362 3.97177 17.0403 119.737 7.83233 -96.6898 -2.48436 53.3536 24.4852 -15.5479 0.258507 0.524054 2.93217 7.1692 -31.1534 -176.248 5.21036 -8.32931 0.144623 -18.544 -1.80771 118.097 81.8066 -124.63 -1.03872 2.85314 3.30018 178.302 -0.587922 11.0375 1.03552 -24.3515 10.1278 -151.362 69.8601 152.827 1.20792 3.50338 -3.55031 
-0.853851 103.684 0.35807 2.13816 -5.53401 -17.8372 -1.23968 5.2906 -1.11821 -0.242815 2.06216 -0.701211 -0.234705 2.06718 -0.691623 1.21429 2.17402 2.5217 -4.56307 -4.77332 14.5983 -115.765 1.03307 93.6508 5.2935 49.1275 6.22782 21.56 0.369737 -0.513844 -3.35254 2.88303 16.1933 119.769 7.80368 -96.6818 -1.19794 53.4181 23.0095 -16.6714 0.276579 0.530022 2.52984 7.40585 -30.5683 -176.159 5.18433 -8.48177 0.0928152 -19.1911 -2.75748 119.907 81.6514 -126.697 -1.03507 3.37073 3.247 177.957 -0.404523 11.1666 1.11316 -25.0462 10.1717 -155.117 70.0075 156.606 1.20789 3.50639 -3.54988 
-0.88148 103.566 0.630404 2.02207 -5.55145 -18.9736 -1.2474 5.45803 -1.32593 -0.288741 2.12261 -0.834343 -0.27868 2.12823 -0.82516 1.17177 2.1401 2.60462 -4.56775 -4.8383 15.0757 -115.39 1.2028 93.6838 5.82708 48.9681 6.66835 22.5642 0.38632 -0.519843 -5.01151 2.41995 15.0597 119.809 7.76316 -96.6698 0.464738 53.0893 20.8936 -19.1387 0.315453 0.544259 2.52707 8.45863 -29.3673 -176.033 5.26914 -8.4906 0.0460139 -20.1753 -3.39791 124.613 81.2427 -131.646 -1.03509 3.37028 3.24703 177.718 -0.315565 11.1842 1.13753 -25.6562 9.71038 -157.214 69.8301 158.715 1.20787 3.508 -3.54953 
-0.846891 103.471 0.917118 1.89434 -5.47902 -19.9277 -1.22687 5.64376 -1.6002 -0.337967 2.21618 -1.00958 -0.32535 2.22258 -1.00076 1.13375 2.0753 2.70917 -4.69462 -5.04921 15.7073 -114.85 1.48779 93.7491 9.11359 48.1584 5.60779 22.5355 0.38594 -0.51969 -5.68819 2.76437 13.639 119.783 7.73161 -96.6546 1.53557 51.8125 18.8614 -22.4225 0.366905 0.565925 2.57452 10.1554 -27.5587 -176.153 5.53498 -8.36508 0.112334 -21.3149 -2.34699 130.464 80.5443 -137.323 -1.03516 3.36199 3.24788 177.565 -0.31364 11.1472 1.09871 -26.0225 8.77327 -157.768 69.514 159.262 1.20787 3.5128 -3.54906 
-0.682927 103.39 1.1801 1.7158 -5.25689 -20.7876 -1.15655 5.84946 -1.86421 -0.38677 2.26231 -1.17358 -0.371399 2.26931 -1.16552 1.12287 2.089 2.81342 -4.86861 -5.32052 16.4502 -114.161 1.86335 93.8364 14.9274 46.2947 3.45852 21.4306 0.367629 -0.513092 -4.3737 2.90879 11.9092 119.682 7.81098 -96.6764 1.38212 49.0254 17.6126 -26.5324 0.429365 0.597225 2.40633 11.2043 -24.7985 -176.791 6.74389 -8.3807 0.287277 -23.7143 0.919461 138.767 78.9821 -143.345 -1.03412 3.49969 3.22754 177.454 -0.25526 11.1818 1.06041 -26.2362 7.81393 -158.025 69.2826 159.553 1.20777 3.5239 -3.54794 
-0.371211 103.314 1.43976 1.50809 -4.88985 -21.6742 -1.07347 6.04103 -2.06788 -0.451985 2.23832 -1.29328 -0.434068 2.24551 -1.28677 1.12225 2.20302 2.90393 -4.91843 -5.47201 17.3655 -113.498 2.23354 93.8853 21.427 42.846 1.55202 22.1593 0.379735 -0.517426 -2.95266 1.83621 9.88069 119.746 8.14848 -96.8084 -0.148675 44.251 17.5072 -31.4348 0.499447 0.639718 2.05617 10.3681 -21.2828 -177.514 8.96941 -8.54809 0.490591 -26.6192 4.89524 141.691 78.257 -143.888 -1.02701 4.36376 3.14179 177.287 -0.0283797 11.379 1.01392 -26.4332 6.60367 -158.101 69.1333 159.672 1.20769 3.53736 -3.54711 
0.0216599 103.301 1.74237 1.38731 -4.42083 -22.6009 -1.07267 6.19515 -2.21563 -0.569076 2.19066 -1.37563 -0.549053 2.19767 -1.37164 1.11462 2.40332 2.98339 -4.77133 -5.39784 18.7034 -112.98 2.60818 93.8624 27.9242 37.486 0.427617 25.0182 0.425462 -0.535382 -2.61846 -0.647562 7.28191 120.093 8.70093 -97.0245 -3.24343 37.3653 18.6114 -36.5946 0.570524 0.691201 1.83282 7.7487 -17.8737 -177.762 11.9047 -8.69877 0.557601 -28.8604 7.16478 137.495 79.1684 -139.551 -1.02519 4.54475 3.12618 177.015 0.217225 11.6676 0.971918 -26.3407 5.1351 -157.949 69.1553 159.508 1.20762 3.54688 -3.54611 
0.427915 103.393 2.15046 1.37106 -3.93232 -23.6463 -1.26613 6.34454 -2.30822 -0.750792 2.16302 -1.42318 -0.729227 2.16975 -1.4225 1.10194 2.63964 3.0589 -4.59794 -5.15837 20.6105 -112.541 3.11286 93.7925 34.7446 30.332 -0.360216 28.2581 0.473744 -0.557059 -2.96273 -3.69876 3.83731 120.551 9.23426 -97.1896 -7.86112 28.7805 20.505 -41.3154 0.630867 0.743797 1.89639 4.2996 -15.3324 -177.751 15.064 -8.72199 0.326801 -30.3443 6.75511 134.313 79.7366 -136.729 -1.02598 4.462 3.13454 176.651 0.296064 11.8862 0.961238 -25.7062 3.5922 -157.46 69.4733 158.972 1.20759 3.55034 -3.54557 
0.797871 103.554 2.70505 1.40605 -3.53772 -24.8893 -1.67143 6.54935 -2.32545 -0.971989 2.16338 -1.42521 -0.949562 2.16996 -1.42803 1.07596 2.92228 3.13218 -4.60839 -4.8874 22.922 -111.954 3.90266 93.7431 41.3933 21.8536 -1.33407 30.5449 0.512498 -0.577106 -2.98498 -6.73816 0.16627 120.665 9.57767 -97.1746 -13.7304 19.2466 22.7426 -45.0492 0.670547 0.785999 2.1288 0.741158 -13.8231 -177.567 18.0224 -8.72101 -0.00990012 -30.7551 5.00859 130.936 80.3169 -133.269 -1.02931 4.09439 3.17245 176.19 0.0856331 11.99 0.996897 -24.6145 2.16283 -156.698 70.0096 158.223 1.20744 3.55674 -3.54521 
1.09607 103.72 3.47375 1.44101 -3.20482 -26.2591 -2.22493 6.7558 -2.25833 -1.19699 2.16903 -1.36944 -1.17473 2.1756 -1.37547 1.0168 3.28957 3.18184 -4.78259 -4.61867 25.2338 -111.103 5.02597 93.776 46.5509 12.5689 -2.58458 32.1327 0.53741 -0.591019 -2.90176 -9.65368 -2.48326 120.313 9.96582 -97.0868 -19.8493 9.20368 25.1737 -47.5844 0.715874 0.835637 2.25556 -2.97294 -13.3712 -177.09 20.7575 -8.78337 -0.280162 -30.4778 4.2947 127.102 80.8674 -128.965 -1.031 3.89277 3.19324 175.659 -0.408715 12.1046 1.07752 -23.26 0.806321 -155.777 70.5862 157.447 1.20745 3.56063 -3.55586 
